<svg height="41" viewBox="0 -960 820 820" width="41" xmlns="http://www.w3.org/2000/svg"><path d="M77-270q-38 0-59.5-25.5T2-366l48-335q8-53 49.5-91t94.5-38h433q53 0 94.5 38t49.5 91l47 335q6 45-15.5 70.5T743-270q-23 0-39-7.5T677-296L573-400H247L143-296q-11 11-27 18.5T77-270zm553-240q16 0 28-12t12-28q0-16-12-28t-28-12q-16 0-28 12t-12 28q0 16 12 28t28 12zm-85-130q16 0 28-12t12-28q0-16-12-28t-28-12q-16 0-28 12t-12 28q0 16 12 28t28 12zM230-515h50v-75h75v-50h-75v-75h-50v75h-75v50h75z" style="fill:#424242;fill-opacity:1"/></svg>