<svg height="320" width="320" viewBox="0 0 320 320" xmlns="http://www.w3.org/2000/svg"><path d="M287.46 86.434C275.942 66.493 183.007 12.868 160 12.868c-23.007 0-115.908 53.625-127.461 73.566-10.746 18.56-10.746 128.606 0 147.165 11.553 19.908 104.454 73.533 127.46 73.533 23.007 0 115.941-53.625 127.462-73.566 10.745-18.56 10.745-128.573 0-147.132zM298.577 80C285.17 56.825 187.822 0 160 0 132.177 0 34.83 56.825 21.423 80c-13.002 22.434-13.002 137.566 0 160C34.83 263.173 132.177 320 160 320c27.822 0 125.17-56.826 138.576-79.967 13.002-22.467 13.002-137.6 0-160.033zm-7.95 155.418C278.805 255.864 183.579 310.803 160 310.804c-23.579 0-118.805-54.972-130.627-75.42-11.015-19.03-11.015-131.806 0-150.837C41.195 64.134 136.42 9.195 160 9.195c23.578 0 118.804 54.973 130.627 75.386 11.014 19.032 11.014 131.806 0 150.837z" fill="#f87171" /><g fill="#fff"><path d="M79.576 131.456c.668-1.804 1.607-3.206 2.818-4.204 1.216-.997 2.241-1.34 3.074-1.033.225.083.401.204.526.362a.94.94 0 0 1 .204.49 1.14 1.14 0 0 1-.07.507c-.1.272-.392.627-.876 1.066a30.439 30.439 0 0 0-1.516 1.51c-.524.563-.89 1.124-1.097 1.685-.332.896-.133 1.48.596 1.749.226.083.467.09.723.02.26-.067.56-.22.898-.456.337-.236.643-.478.918-.726.28-.238.659-.572 1.14-.998.474-.43.885-.783 1.23-1.063 1.098-.923 2.037-1.506 2.817-1.749a3.523 3.523 0 0 1 2.355.062c3.133 1.16 3.919 3.853 2.355 8.08a12.632 12.632 0 0 1-1.138 2.33c-.456.719-.929 1.32-1.416 1.804a9.881 9.881 0 0 1-1.483 1.207c-.502.327-.968.54-1.399.636-.43.097-.799.09-1.105-.024a1.29 1.29 0 0 1-.728-.644c-.156-.308-.156-.672 0-1.094.118-.318.604-1.01 1.458-2.075.846-1.061 1.407-1.964 1.683-2.71.253-.683.145-1.111-.324-1.284-.139-.05-.273-.068-.405-.05a1.152 1.152 0 0 0-.445.14 3.463 3.463 0 0 0-.473.317 14.684 14.684 0 0 0-.627.519 95.38 95.38 0 0 0-.762.674 151.48 151.48 0 0 0-.997.884c-.41.362-.815.711-1.216 1.048a5.682 5.682 0 0 1-1.714 1.004c-.618.232-1.192.352-1.72.36-.531.014-.992-.052-1.386-.197-1.272-.471-2.1-1.424-2.483-2.861-.384-1.43-.19-3.193.585-5.286zm40.873-42.577 4.057 5.966c1.327 1.953 1.807 3.673 1.44 5.16-.36 1.49-1.656 2.994-3.89 4.513-2.126 1.446-3.994 2.052-5.605 1.821-1.615-.236-3.045-1.27-4.29-3.1l-4.057-5.966c-.482-.71-.666-1.43-.553-2.163.118-.736.499-1.323 1.141-1.76.785-.534 1.483-.791 2.091-.774.61.019 1.218.474 1.824 1.367l4.441 6.532c.307.418.61.71.91.879.301.168.592.228.872.178.278-.04.586-.174.923-.403.332-.225.576-.451.735-.678.158-.228.23-.463.214-.705a1.89 1.89 0 0 0-.155-.655 4.314 4.314 0 0 0-.408-.718l-4.458-6.554c-.309-.454-.51-.872-.606-1.254-.096-.382-.077-.727.057-1.035a2.64 2.64 0 0 1 .516-.787 4.969 4.969 0 0 1 .838-.693c.775-.526 1.484-.733 2.128-.619.64.109 1.253.592 1.836 1.448zm42.74-12.306c1.921.062 3.548.508 4.88 1.34 1.33.838 1.982 1.701 1.953 2.587-.007.24-.067.445-.176.615a.946.946 0 0 1-.4.349 1.12 1.12 0 0 1-.503.094c-.29-.01-.72-.174-1.289-.494a29.61 29.61 0 0 0-1.913-.958c-.7-.317-1.348-.486-1.946-.506-.955-.03-1.445.343-1.47 1.12a1.159 1.159 0 0 0 .21.69c.148.228.387.463.718.708.332.245.658.46.979.643.315.189.75.443 1.309.763.557.313 1.023.59 1.398.83 1.223.748 2.073 1.454 2.552 2.117.485.663.714 1.413.687 2.251-.106 3.34-2.41 4.94-6.916 4.797a12.638 12.638 0 0 1-2.57-.34c-.826-.205-1.547-.463-2.16-.772a9.916 9.916 0 0 1-1.616-1.023c-.469-.373-.818-.748-1.046-1.124-.23-.378-.338-.73-.328-1.057.011-.352.14-.65.38-.895.242-.246.59-.36 1.039-.347.338.011 1.147.253 2.429.725 1.274.467 2.309.712 3.105.737.726.024 1.098-.215 1.114-.713a.845.845 0 0 0-.08-.401 1.155 1.155 0 0 0-.275-.38 3.446 3.446 0 0 0-.452-.347 14.738 14.738 0 0 0-.69-.429c-.29-.17-.584-.34-.88-.509a207.761 207.761 0 0 0-1.155-.666 71.648 71.648 0 0 1-1.38-.821 5.675 5.675 0 0 1-1.495-1.305c-.415-.513-.711-1.02-.887-1.519-.182-.5-.266-.958-.252-1.376.042-1.357.686-2.443 1.926-3.262 1.235-.818 2.968-1.192 5.199-1.122zm54.379 25.962-6.292 8.124c-.8 1.034-1.558 1.63-2.272 1.786-.71.152-1.441-.063-2.192-.645-.74-.574-1.128-1.197-1.16-1.87-.037-.667.34-1.513 1.134-2.537l1.661-2.176-3.912-3.03-1.574 2.033c-.812 1.048-1.564 1.651-2.256 1.81-.697.154-1.432-.069-2.206-.669-.742-.574-1.129-1.197-1.161-1.87-.037-.667.34-1.514 1.133-2.537l6.2-8.126c.615-.794 1.27-1.22 1.96-1.277.687-.061 1.364.167 2.032.684.766.592 1.222 1.172 1.369 1.738.141.562-.118 1.27-.78 2.123l-2.491 3.217 3.89 3.013 2.356-3.042c.416-.535.859-.903 1.33-1.098.468-.2.916-.255 1.345-.165.43.099.862.317 1.295.653.742.574 1.19 1.148 1.346 1.721.158.574-.095 1.287-.755 2.14zm21.735 36.295-9.696 3.4c-1.186.416-2.134.5-2.842.252-.702-.25-1.21-.827-1.528-1.729-.308-.879-.301-1.613.021-2.203.325-.584 1.098-1.09 2.32-1.519l9.67-3.391c1.834-.643 3.052-.103 3.655 1.62.31.884.377 1.613.199 2.185-.181.566-.78 1.028-1.799 1.385zM82.647 162.525a1.922 1.922 0 1 1 3.843 0 1.922 1.922 0 0 1-3.843 0zm149.835 0a1.922 1.922 0 1 1 3.844 0 1.922 1.922 0 0 1-3.844 0zm7.941 25.975c-.667 1.804-1.606 3.206-2.818 4.204-1.215.997-2.24 1.34-3.073 1.033a1.168 1.168 0 0 1-.527-.363.948.948 0 0 1-.204-.49 1.14 1.14 0 0 1 .07-.506c.1-.272.393-.627.877-1.066a30.439 30.439 0 0 0 1.515-1.511c.524-.562.89-1.123 1.097-1.684.332-.896.134-1.48-.596-1.75a1.159 1.159 0 0 0-.723-.02c-.26.068-.56.22-.897.456a9.674 9.674 0 0 0-.92.726c-.278.239-.657.572-1.14.999-.473.429-.884.783-1.23 1.063-1.096.922-2.035 1.506-2.816 1.748a3.523 3.523 0 0 1-2.355-.062c-3.133-1.16-3.918-3.852-2.354-8.08a12.632 12.632 0 0 1 1.137-2.33c.456-.718.929-1.32 1.417-1.803a9.881 9.881 0 0 1 1.482-1.208c.502-.327.969-.54 1.399-.635.43-.098.799-.09 1.105.024a1.29 1.29 0 0 1 .729.644c.155.308.155.672-.001 1.094-.118.318-.604 1.01-1.458 2.075-.846 1.061-1.407 1.964-1.683 2.71-.252.683-.145 1.11.324 1.283.14.051.274.069.405.051.136-.009.284-.056.445-.14a3.463 3.463 0 0 0 .473-.318 14.684 14.684 0 0 0 .627-.519c.253-.22.507-.446.762-.674a151.48 151.48 0 0 0 .997-.883c.41-.362.815-.711 1.217-1.049a5.682 5.682 0 0 1 1.713-1.004c.618-.231 1.192-.352 1.72-.36.532-.013.992.052 1.386.198 1.272.471 2.1 1.424 2.483 2.86.385 1.431.19 3.194-.585 5.287zm-40.873 42.577-4.056-5.966c-1.328-1.953-1.808-3.673-1.44-5.16.359-1.49 1.656-2.995 3.889-4.513 2.127-1.446 3.995-2.052 5.606-1.821 1.615.236 3.044 1.27 4.29 3.1l4.056 5.966c.482.71.667 1.43.553 2.163-.117.736-.498 1.323-1.14 1.76-.786.533-1.484.791-2.092.773-.61-.018-1.217-.473-1.824-1.366l-4.441-6.532c-.307-.418-.61-.711-.91-.879-.3-.169-.592-.228-.872-.179-.278.04-.586.175-.922.404-.332.225-.577.451-.736.678a1.087 1.087 0 0 0-.214.705 1.89 1.89 0 0 0 .155.655 4.314 4.314 0 0 0 .408.718l4.458 6.554c.309.454.51.871.606 1.254.096.382.077.727-.057 1.035a2.64 2.64 0 0 1-.515.787 4.969 4.969 0 0 1-.839.692c-.775.527-1.484.733-2.128.62-.64-.109-1.252-.592-1.836-1.448zm-42.74 12.305c-1.921-.061-3.548-.507-4.88-1.34-1.33-.837-1.981-1.7-1.953-2.587.007-.24.067-.445.176-.614a.946.946 0 0 1 .4-.349 1.12 1.12 0 0 1 .503-.095c.29.01.72.175 1.289.495a29.61 29.61 0 0 0 1.913.957c.7.318 1.348.487 1.946.506.955.031 1.446-.343 1.47-1.119a1.159 1.159 0 0 0-.21-.691c-.148-.227-.386-.464-.717-.707a10.146 10.146 0 0 0-.98-.643 80.11 80.11 0 0 0-1.308-.763 28.839 28.839 0 0 1-1.398-.83c-1.224-.749-2.073-1.454-2.552-2.117a3.52 3.52 0 0 1-.687-2.253c.105-3.339 2.41-4.938 6.915-4.795a12.638 12.638 0 0 1 2.571.34c.825.204 1.546.462 2.16.772a9.916 9.916 0 0 1 1.615 1.023c.47.372.819.748 1.047 1.124.229.377.337.73.327 1.057a1.287 1.287 0 0 1-.38.895c-.242.245-.589.36-1.038.346-.339-.01-1.148-.252-2.43-.725-1.274-.466-2.309-.712-3.105-.737-.726-.023-1.098.215-1.113.714a.845.845 0 0 0 .08.4 1.155 1.155 0 0 0 .275.38 3.446 3.446 0 0 0 .451.347 14.738 14.738 0 0 0 .69.43c.291.17.584.339.88.509a207.761 207.761 0 0 0 1.156.665 71.648 71.648 0 0 1 1.38.822 5.675 5.675 0 0 1 1.494 1.305c.416.513.712 1.019.888 1.518.181.5.266.959.252 1.377-.043 1.356-.686 2.443-1.927 3.261-1.234.819-2.968 1.193-5.198 1.122zm-54.378-25.96 6.292-8.126c.8-1.033 1.557-1.628 2.27-1.785.712-.152 1.442.063 2.193.645.741.574 1.129 1.196 1.161 1.87.036.667-.341 1.513-1.135 2.536l-1.661 2.177 3.912 3.03 1.574-2.033c.812-1.049 1.564-1.651 2.256-1.81.697-.155 1.432.069 2.206.668.742.574 1.13 1.197 1.162 1.87.036.668-.341 1.514-1.134 2.538l-6.2 8.125c-.615.795-1.27 1.221-1.96 1.278-.687.061-1.364-.167-2.032-.684-.766-.594-1.222-1.172-1.368-1.739-.142-.561.117-1.27.778-2.123l2.492-3.216-3.89-3.013-2.356 3.04c-.415.537-.859.904-1.33 1.1-.468.2-.915.255-1.345.165-.429-.1-.862-.317-1.295-.654-.741-.574-1.19-1.147-1.346-1.72-.157-.575.096-1.287.756-2.14zm-21.736-36.296 9.696-3.4c1.187-.417 2.134-.5 2.842-.252.702.25 1.211.827 1.528 1.729.308.878.302 1.613-.021 2.202-.325.584-1.098 1.09-2.32 1.52l-9.67 3.39c-1.833.643-3.051.103-3.655-1.619-.31-.884-.376-1.613-.198-2.185.18-.566.778-1.029 1.798-1.385z"/><path d="M167.893 179.863a1.434 1.434 0 0 0-1.429-.012l-17.264 9.71a4.316 4.316 0 0 1-3.368.365 4.325 4.325 0 0 1-2.586-2.188l-1.435-2.868a4.314 4.314 0 0 1 1.463-5.503l17.38-11.588c-3.4 1.39-8.209 2.26-13.56 2.26-10.296 0-18.64-3.209-18.64-7.17 0-.49.128-.968.375-1.433h-1.81a1.434 1.434 0 0 0-1.434 1.434v20.075c0 5.722 9.246 10.038 21.51 10.038 12.262 0 21.509-4.316 21.509-10.038v-1.844a1.434 1.434 0 0 0-.711-1.238zm-20.799-27.033c-12.263 0-21.51 4.315-21.51 10.037s9.247 10.038 21.51 10.038c2.111 0 4.202-.138 6.218-.41a1.431 1.431 0 0 0 .602-.23l6.734-4.488c-3.399 1.388-8.208 2.26-13.557 2.26-10.295 0-18.642-3.21-18.642-7.17s8.347-7.17 18.642-7.17c10.296 0 18.642 3.21 18.642 7.17 0 .708-.279 1.39-.775 2.04l2.843-1.894a1.437 1.437 0 0 0 .584-1.585c-1.413-4.982-10.367-8.598-21.29-8.598zm46.61-25.616a1.428 1.428 0 0 0-1.428-.013l-45.887 25.812a1.434 1.434 0 1 0 1.408 2.498l2.22-1.25h4.258c0 .217.034.432.138.642a1.434 1.434 0 0 0 1.924.64L193.62 136.9a1.434 1.434 0 0 0 .792-1.282v-7.17a1.422 1.422 0 0 0-.709-1.235zm-46.61 31.351c-2.153 0-12.905.207-12.905 4.302 0 4.096 10.752 4.302 12.904 4.302 2.155 0 12.907-.206 12.907-4.302 0-4.095-10.752-4.301-12.906-4.301zm46.563-8.434a1.434 1.434 0 0 0-1.471.072l-47.32 31.547a1.434 1.434 0 0 0-.488 1.836l1.434 2.867a1.426 1.426 0 0 0 1.282.792 1.42 1.42 0 0 0 .703-.184l45.886-25.812a1.434 1.434 0 0 0 .732-1.25v-8.603a1.44 1.44 0 0 0-.758-1.265z"/></g></svg>
