<svg width="20mm" height="20mm" viewBox="0 0 20 20" xmlns="http://www.w3.org/2000/svg" fill="#f87171"><path d="M113.065 135.098a.417.417 0 0 0-.415-.003l-5.016 2.821a1.254 1.254 0 0 1-.979.106 1.257 1.257 0 0 1-.751-.636l-.417-.833a1.254 1.254 0 0 1 .425-1.599l5.05-3.367c-.988.404-2.385.657-3.94.657-2.992 0-5.416-.933-5.416-2.084a.88.88 0 0 1 .109-.416h-.526a.417.417 0 0 0-.417.416v5.834c0 1.662 2.687 2.916 6.25 2.916s6.25-1.254 6.25-2.916v-.536a.417.417 0 0 0-.207-.36zm-6.043-7.855c-3.563 0-6.25 1.253-6.25 2.916s2.687 2.917 6.25 2.917c.613 0 1.22-.04 1.807-.12a.416.416 0 0 0 .175-.066l1.956-1.304c-.987.403-2.385.656-3.939.656-2.991 0-5.417-.932-5.417-2.083 0-1.15 2.426-2.083 5.417-2.083 2.992 0 5.417.932 5.417 2.083 0 .206-.081.404-.225.593l.826-.55a.418.418 0 0 0 .17-.461c-.411-1.448-3.013-2.498-6.187-2.498zm13.543-7.443a.415.415 0 0 0-.415-.003l-13.333 7.5a.417.417 0 1 0 .41.725l.644-.363h1.237c0 .063.01.126.04.187a.417.417 0 0 0 .56.186l10.833-5.417a.417.417 0 0 0 .23-.373v-2.083a.413.413 0 0 0-.206-.359zm-13.543 9.11c-.626 0-3.75.06-3.75 1.25s3.124 1.25 3.75 1.25c.626 0 3.75-.06 3.75-1.25s-3.124-1.25-3.75-1.25zm13.53-2.452a.417.417 0 0 0-.428.021l-13.75 9.167a.417.417 0 0 0-.141.533l.416.833a.414.414 0 0 0 .373.23.413.413 0 0 0 .204-.053l13.333-7.5a.417.417 0 0 0 .213-.363v-2.5a.418.418 0 0 0-.22-.368z" transform="translate(-100.772 -119.326)"/></svg>
