<svg xmlns="http://www.w3.org/2000/svg" xml:space="preserve" width="182.619" height="29.231" class="icon-icon-0" data-fill-palette-color="accent" viewBox="1 20.8 136.899 21.913">
  <g style="font-weight:700;font-size:29.9856px;line-height:1.25;font-family:'Zen Kaku Gothic New';-inkscape-font-specification:'Zen Kaku Gothic New Bold';letter-spacing:.37482px;word-spacing:0;stroke-width:.749641">
    <path d="M12.485 8.255q-.96 0-.96-.99V-.74L5.228-11.535q-.3-.54-.15-.87.18-.33.75-.33.48 0 .75.18.3.15.51.51l5.367 9.266 5.367-9.266q.36-.69 1.17-.69.6 0 .78.36.21.33-.12.84L13.413-.74v8.006q0 .99-.93.99zm18.605.39q-2.848 0-5.007-1.35-2.159-1.349-3.388-3.807-1.2-2.46-1.2-5.758t1.2-5.727q1.23-2.459 3.388-3.808 2.16-1.38 5.008-1.38 2.819 0 4.978 1.38 2.158 1.35 3.358 3.808 1.23 2.429 1.23 5.727 0 3.299-1.23 5.758-1.2 2.458-3.358 3.808-2.16 1.35-4.978 1.35zm0-1.8q2.25 0 3.959-1.079 1.74-1.109 2.699-3.148.99-2.069.99-4.888 0-2.818-.99-4.857-.96-2.04-2.699-3.119-1.71-1.11-3.958-1.11-2.249 0-3.988 1.11-1.74 1.08-2.729 3.119-.99 2.039-.99 4.857 0 2.819.99 4.888.99 2.039 2.729 3.148 1.739 1.08 3.988 1.08zm14.769 1.41q-.93 0-.93-.99v-19.04q0-.99.99-.99h8.156q2.968 0 4.498 1.38 1.559 1.379 1.559 4.108 0 5.127-5.397 5.457l4.767 8.906q.24.51.12.84-.12.33-.6.33h-.27q-.839 0-1.169-.72L52.696-1.79h-5.938v9.056q0 .99-.9.99zm.9-11.814h7.166q2.159 0 3.208-.9 1.08-.9 1.08-2.818 0-1.92-1.08-2.819-1.05-.9-3.208-.9h-7.167ZM71.721 8.615q-3.598 0-5.577-2.159Q64.195 4.267 64.195.1v-11.844q0-.99.96-.99.93 0 .93.99V.039q0 3.179 1.408 4.978 1.44 1.769 4.228 1.769 2.82 0 4.228-1.77Q77.39 3.219 77.39.04v-11.784q0-.99.93-.99.929 0 .929.99V.099q0 4.168-1.95 6.357-1.948 2.16-5.577 2.16zm34.034-.36q-.87 0-.87-.87v-19.25q0-.87.87-.87h.09q.87 0 .87.87v8.276h11.754v-8.276q0-.87.87-.87h.12q.87 0 .87.87v19.25q0 .87-.87.87h-.12q-.87 0-.87-.87V-1.85h-11.754v9.236q0 .87-.87.87zm19.085 0q-.479 0-.659-.27-.15-.27.03-.75l7.736-19.28q.21-.69.99-.69h.15q.78 0 .99.69l7.766 19.28q.33 1.02-.63 1.02h-.3q-.72 0-.99-.69l-2.218-5.637h-9.386l-2.249 5.638q-.24.69-.99.69zM128.95.16h8.096l-4.018-10.285z" aria-label="YORUCHA" style="font-weight:400;font-family:'Zen Maru Gothic';-inkscape-font-specification:'Zen Maru Gothic'" transform="matrix(1 0 0 .96267 -4.028 33.941)"/>
  </g>
  <path d="M82.53 39.963q-3.419-2.94-3.753-7.393-.335-4.452 2.606-7.871 2.94-3.42 7.393-3.755 4.452-.335 7.872 2.606.182.157.377.345.196.188.495.485-1.448.024-2.825.703-1.378.68-2.397 1.865-1.765 2.05-1.564 4.723.201 2.67 2.253 4.436 1.185 1.02 2.62 1.52 1.433.499 2.81.374-.213.293-.348.474-.136.18-.273.34-2.941 3.42-7.394 3.755-4.452.334-7.871-2.607zm1.177-1.367q2.485 2.137 5.655 2.186 3.17.05 5.41-1.633-.786-.24-1.547-.676-.761-.436-1.415-.998-2.614-2.25-2.871-5.67-.258-3.42 1.991-6.034.47-.547 1.124-1.076.653-.528 1.635-1.071-2.763-1.306-5.85-.69-3.089.616-5.089 2.94-2.45 2.85-2.171 6.56.279 3.71 3.128 6.162zm5.732-6.85z" style="stroke-width:.0300678"/>
</svg>
