<svg xmlns="http://www.w3.org/2000/svg" viewBox="1 20.8 140.071 21.95">
  <g>
    <g>
      <path d="M7.618 65.966q-1.41 0-1.41-1.44V57.03L.183 46.685q-.48-.81-.21-1.26.3-.45 1.23-.45.629 0 1.019.24.42.24.72.75l4.677 8.066 4.618-8.066q.6-.99 1.71-.99.959 0 1.229.51.27.48-.15 1.2L8.997 57.03v7.497q0 1.439-1.379 1.439zM26.9 66.416q-2.85 0-5.039-1.35-2.189-1.35-3.448-3.808-1.23-2.459-1.23-5.787 0-3.329 1.23-5.788 1.26-2.488 3.448-3.838 2.19-1.38 5.038-1.38 2.849 0 5.008 1.38 2.189 1.35 3.418 3.838 1.26 2.46 1.26 5.788 0 3.328-1.26 5.787-1.23 2.459-3.418 3.808-2.16 1.35-5.008 1.35zm0-2.7q2.038 0 3.567-1.019 1.56-1.02 2.4-2.848.869-1.86.869-4.378 0-2.55-.87-4.378-.84-1.86-2.399-2.879-1.529-1.02-3.568-1.02t-3.598 1.02q-1.53 1.02-2.4 2.879-.869 1.829-.869 4.378 0 2.519.87 4.378.87 1.829 2.399 2.848 1.56 1.02 3.598 1.02zM42.252 65.966q-1.35 0-1.35-1.44V46.386q0-1.41 1.41-1.41h7.976q2.969 0 4.588 1.38 1.65 1.38 1.65 4.378 0 2.669-1.29 4.078-1.29 1.41-3.748 1.65l4.048 7.826q.36.75.15 1.229-.21.45-.9.45h-.42q-1.2 0-1.679-1.08l-4.078-8.306H43.63v7.947q0 1.439-1.38 1.439zm1.38-11.995h6.326q1.8 0 2.729-.75.96-.779.96-2.488 0-1.68-.96-2.429-.93-.75-2.729-.75h-6.327zM68.4 66.326q-3.808 0-5.818-2.1-2.009-2.128-2.009-6.296V46.415q0-1.44 1.41-1.44 1.38 0 1.38 1.44V57.81q0 2.908 1.288 4.378 1.32 1.469 3.749 1.469 2.429 0 3.718-1.47 1.29-1.469 1.29-4.377V46.415q0-1.44 1.409-1.44 1.38 0 1.38 1.44V57.93q0 4.168-2.01 6.297-2.009 2.099-5.787 2.099zM103.453 65.966q-1.29 0-1.29-1.32V46.295q.001-1.32 1.29-1.32h.15q1.29 0 1.29 1.32v7.377h10.525v-7.377q0-1.32 1.29-1.32h.18q1.288 0 1.288 1.32v18.351q0 1.32-1.289 1.32h-.18q-1.29 0-1.29-1.32V56.22h-10.524v8.426q0 1.32-1.29 1.32zM123.154 65.966q-.66 0-.93-.39-.24-.42 0-1.11l7.197-18.47q.39-1.02 1.5-1.02h.21q1.109 0 1.499 1.02l7.196 18.47q.24.69 0 1.11-.24.39-.93.39h-.449q-1.14 0-1.5-1.05l-1.619-4.318h-8.665l-1.65 4.318q-.36 1.05-1.469 1.05zm4.438-7.946h6.807l-3.359-9.116z" transform="translate(1.125 -23.666)"/>
    </g>
  </g>
  <path d="M84.3 39.536q-3.24-3.224-3.251-7.73-.012-4.506 3.213-7.747 3.224-3.24 7.74-3.259 4.514-.018 7.755 3.207.146.145.308.315t.426.475q-1.377.074-2.679.654-1.301.58-2.326 1.61-1.962 1.972-1.952 4.73.01 2.757 1.987 4.724 1.018 1.013 2.29 1.63 1.273.617 2.588.724l-.358.388q-.126.136-.232.242-3.224 3.24-7.746 3.25-4.523.012-7.763-3.213zm1.673-1.676q2.07 2.06 4.887 2.374 2.817.314 4.92-.929-.63-.234-1.245-.663-.616-.428-1.091-.95-2.24-2.537-2.272-5.875-.032-3.338 2.254-5.971.391-.417.956-.832.564-.415 1.446-.823-2.406-1.208-5.196-.79-2.79.417-4.69 2.326-2.53 2.543-2.52 6.073.008 3.53 2.55 6.06zm5.664-6.101z"/>
</svg>
