<svg height="320" width="320" xmlns="http://www.w3.org/2000/svg"><g transform="matrix(.92705 0 0 .92705 -.38 -.38)"><path d="M310.491 93.645C298.065 72.135 197.817 14.29 173 14.29c-24.817 0-125.028 57.845-137.491 79.355-11.591 20.02-11.591 138.726 0 158.746C47.972 273.865 148.183 331.71 173 331.71c24.817 0 125.064-57.845 137.491-79.355 11.591-20.02 11.591-138.69 0-158.71zm11.99-6.94C308.02 61.707 203.012.41 173 .41S37.98 61.707 23.519 86.705c-14.025 24.199-14.025 148.391 0 172.59C37.98 284.293 142.988 345.59 173 345.59s135.02-61.297 149.481-86.259c14.025-24.235 14.025-148.427 0-172.626zm-8.575 167.648C301.153 276.408 198.434 335.67 173 335.671c-25.434 0-128.153-59.298-140.906-81.354-11.881-20.529-11.881-142.178 0-162.707C44.847 69.591 147.566 10.329 173 10.329c25.434 0 128.153 59.298 140.906 81.318 11.881 20.529 11.881 142.178 0 162.706z" fill="#f87171" font-family="none" font-weight="none" font-size="none" text-anchor="none" style="mix-blend-mode:normal" data-fill-palette-color="tertiary"/><path style="fill:#fff" d="M86.248 142.21c.72-1.946 1.733-3.458 3.04-4.535 1.311-1.075 2.417-1.446 3.315-1.114.243.09.433.22.568.391.13.168.202.344.22.528a1.23 1.23 0 0 1-.075.547c-.108.293-.424.676-.946 1.15a32.834 32.834 0 0 0-1.635 1.629c-.565.607-.959 1.212-1.183 1.817-.358.967-.144 1.596.643 1.887.243.09.503.097.78.022.281-.073.604-.237.968-.492s.694-.516.991-.783c.301-.257.71-.617 1.23-1.077.511-.463.954-.845 1.327-1.147 1.183-.995 2.196-1.624 3.038-1.886a3.8 3.8 0 0 1 2.54.067c3.38 1.251 4.227 4.156 2.54 8.716a13.626 13.626 0 0 1-1.227 2.513c-.492.775-1.002 1.424-1.528 1.946-.532.519-1.065.953-1.599 1.302-.542.353-1.045.582-1.509.686-.464.105-.862.096-1.192-.026a1.392 1.392 0 0 1-.786-.695c-.168-.332-.168-.725.001-1.18.127-.343.651-1.089 1.572-2.238.913-1.145 1.518-2.119 1.816-2.924.272-.736.156-1.198-.35-1.384-.15-.055-.295-.074-.437-.055-.146.01-.306.061-.48.151a3.735 3.735 0 0 0-.51.343 15.84 15.84 0 0 0-.676.559c-.273.239-.547.482-.822.728a163.4 163.4 0 0 0-1.076.953c-.442.39-.879.767-1.312 1.131a6.129 6.129 0 0 1-1.848 1.083c-.667.25-1.286.379-1.856.388-.573.015-1.07-.056-1.495-.213-1.372-.508-2.265-1.536-2.678-3.086-.415-1.543-.205-3.444.631-5.702zm44.089-45.927 4.376 6.435c1.432 2.107 1.95 3.962 1.553 5.567-.387 1.607-1.786 3.229-4.195 4.867-2.294 1.56-4.309 2.214-6.047 1.965-1.742-.255-3.284-1.37-4.627-3.345l-4.376-6.435c-.52-.765-.719-1.542-.597-2.333.127-.794.538-1.427 1.231-1.898.847-.576 1.6-.854 2.256-.835.657.02 1.313.511 1.967 1.474l4.791 7.046c.331.451.658.767.982.948.324.182.638.246.94.193.3-.043.632-.188.995-.435.358-.243.622-.487.793-.732.171-.245.248-.499.231-.76a2.038 2.038 0 0 0-.167-.707 4.653 4.653 0 0 0-.44-.774l-4.809-7.07c-.333-.49-.55-.94-.654-1.353-.103-.412-.083-.784.062-1.116.145-.332.33-.615.556-.849a5.36 5.36 0 0 1 .904-.747c.836-.568 1.601-.791 2.296-.668.691.117 1.351.638 1.98 1.562zm46.103-13.274c2.073.066 3.828.547 5.264 1.445 1.435.904 2.138 1.835 2.107 2.791-.008.259-.072.48-.19.663a1.02 1.02 0 0 1-.432.376 1.208 1.208 0 0 1-.542.102c-.312-.01-.776-.188-1.39-.533a31.94 31.94 0 0 0-2.064-1.033c-.754-.343-1.454-.525-2.099-.546-1.03-.033-1.559.37-1.585 1.207a1.25 1.25 0 0 0 .226.746c.16.245.417.499.774.763.358.264.71.495 1.056.693.34.204.81.478 1.412.823.601.338 1.104.637 1.508.896 1.32.807 2.236 1.568 2.753 2.283.523.715.77 1.525.741 2.429-.114 3.603-2.6 5.328-7.46 5.174a13.632 13.632 0 0 1-2.773-.367c-.89-.221-1.668-.499-2.33-.833a10.696 10.696 0 0 1-1.742-1.103c-.506-.402-.883-.807-1.129-1.213-.247-.407-.364-.787-.353-1.14.012-.379.15-.701.41-.965.261-.265.635-.389 1.12-.374.365.012 1.238.272 2.62.782 1.375.503 2.491.768 3.35.795.783.025 1.184-.232 1.201-.77a.911.911 0 0 0-.086-.432 1.246 1.246 0 0 0-.297-.409 3.717 3.717 0 0 0-.487-.375 15.898 15.898 0 0 0-.744-.463c-.314-.183-.63-.366-.95-.549a224.11 224.11 0 0 0-1.246-.718 77.286 77.286 0 0 1-1.489-.886 6.122 6.122 0 0 1-1.612-1.408c-.448-.553-.767-1.099-.957-1.638-.196-.539-.287-1.034-.272-1.485.046-1.463.74-2.635 2.078-3.518 1.332-.883 3.202-1.286 5.608-1.21zm58.658 28.004-6.787 8.764c-.863 1.115-1.68 1.757-2.45 1.926-.767.164-1.555-.068-2.365-.696-.799-.619-1.217-1.291-1.252-2.016-.039-.72.368-1.633 1.224-2.737l1.792-2.348-4.22-3.268-1.698 2.193c-.876 1.131-1.687 1.781-2.433 1.952-.752.167-1.545-.074-2.38-.721-.8-.619-1.218-1.291-1.253-2.017-.039-.72.368-1.633 1.223-2.737l6.687-8.765c.664-.857 1.37-1.317 2.115-1.378.741-.066 1.471.18 2.192.738.826.639 1.318 1.264 1.476 1.875.153.606-.127 1.37-.84 2.29l-2.688 3.47 4.197 3.25 2.541-3.281c.448-.578.926-.974 1.435-1.185.504-.216.987-.275 1.45-.178.463.107.93.342 1.397.705.8.619 1.283 1.238 1.452 1.856.17.619-.103 1.388-.815 2.308zm23.446 39.151-10.459 3.668c-1.28.449-2.302.54-3.066.272-.757-.27-1.306-.892-1.648-1.865-.332-.948-.325-1.74.023-2.376.35-.63 1.184-1.176 2.502-1.639l10.432-3.658c1.977-.693 3.291-.111 3.942 1.747.335.954.406 1.74.214 2.357-.195.611-.84 1.109-1.94 1.494zM89.56 175.724a2.073 2.073 0 1 1 4.146 0 2.073 2.073 0 0 1-4.146 0zm161.626 0a2.073 2.073 0 1 1 4.146 0 2.073 2.073 0 0 1-4.146 0zm8.566 28.019c-.72 1.946-1.733 3.458-3.04 4.535-1.311 1.075-2.417 1.446-3.315 1.114a1.26 1.26 0 0 1-.568-.391 1.023 1.023 0 0 1-.22-.528 1.23 1.23 0 0 1 .075-.547c.108-.293.424-.676.946-1.15a32.834 32.834 0 0 0 1.635-1.63c.565-.606.959-1.211 1.183-1.816.358-.967.144-1.596-.643-1.887a1.25 1.25 0 0 0-.78-.022c-.281.073-.604.237-.968.492s-.694.516-.991.783c-.301.257-.71.617-1.23 1.077-.511.463-.954.845-1.327 1.147-1.183.995-2.196 1.624-3.038 1.886a3.8 3.8 0 0 1-2.54-.067c-3.38-1.251-4.227-4.156-2.54-8.716a13.626 13.626 0 0 1 1.227-2.513c.492-.775 1.002-1.424 1.528-1.946a10.659 10.659 0 0 1 1.599-1.302c.542-.353 1.045-.582 1.509-.686.464-.105.862-.096 1.192.026a1.392 1.392 0 0 1 .786.695c.168.332.168.725-.001 1.18-.127.343-.651 1.089-1.572 2.238-.913 1.145-1.518 2.119-1.816 2.924-.272.736-.156 1.198.35 1.384.15.055.295.074.437.055.146-.01.306-.061.48-.151a3.735 3.735 0 0 0 .51-.343 15.84 15.84 0 0 0 .676-.56c.273-.238.547-.481.822-.727a163.4 163.4 0 0 0 1.076-.953c.442-.39.879-.767 1.312-1.131a6.129 6.129 0 0 1 1.848-1.083c.667-.25 1.286-.38 1.856-.388.573-.015 1.07.056 1.495.213 1.372.508 2.265 1.536 2.678 3.086.415 1.543.205 3.444-.631 5.702zm-44.089 45.927-4.376-6.435c-1.432-2.107-1.95-3.962-1.553-5.567.387-1.607 1.786-3.23 4.195-4.867 2.294-1.56 4.309-2.214 6.047-1.965 1.742.255 3.284 1.37 4.627 3.345l4.376 6.435c.52.765.719 1.542.597 2.333-.127.794-.538 1.427-1.231 1.898-.847.576-1.6.854-2.256.835-.657-.02-1.313-.511-1.967-1.474l-4.791-7.046c-.331-.451-.658-.767-.982-.948-.324-.182-.638-.246-.94-.193-.3.043-.632.188-.995.435-.358.243-.622.487-.793.732a1.173 1.173 0 0 0-.231.76 2.038 2.038 0 0 0 .167.707 4.653 4.653 0 0 0 .44.774l4.809 7.07c.333.49.55.94.654 1.353.103.412.083.784-.062 1.116-.145.332-.33.615-.556.849a5.36 5.36 0 0 1-.904.747c-.836.568-1.601.79-2.296.668-.691-.117-1.351-.638-1.98-1.562zm-46.103 13.274c-2.073-.066-3.828-.547-5.264-1.445-1.435-.904-2.138-1.835-2.107-2.791.008-.26.072-.48.19-.663a1.02 1.02 0 0 1 .432-.376 1.208 1.208 0 0 1 .542-.102c.312.01.776.188 1.39.533a31.94 31.94 0 0 0 2.064 1.033c.754.343 1.454.525 2.099.546 1.03.033 1.559-.37 1.585-1.207a1.25 1.25 0 0 0-.226-.746c-.16-.245-.417-.5-.774-.763-.358-.264-.71-.495-1.056-.693-.34-.204-.81-.478-1.412-.823a31.108 31.108 0 0 1-1.508-.896c-1.32-.807-2.236-1.568-2.753-2.283a3.796 3.796 0 0 1-.741-2.43c.114-3.602 2.6-5.327 7.46-5.173a13.632 13.632 0 0 1 2.773.367c.89.22 1.668.499 2.33.833a10.696 10.696 0 0 1 1.742 1.103c.506.402.883.807 1.129 1.213.247.407.364.787.353 1.14a1.388 1.388 0 0 1-.41.965c-.261.265-.635.389-1.12.374-.365-.012-1.238-.272-2.62-.782-1.375-.503-2.491-.768-3.35-.795-.783-.025-1.184.232-1.201.77a.911.911 0 0 0 .086.432 1.246 1.246 0 0 0 .297.409 3.717 3.717 0 0 0 .487.375 15.898 15.898 0 0 0 .744.463c.314.183.63.366.95.549a224.11 224.11 0 0 0 1.246.718 77.286 77.286 0 0 1 1.489.886 6.122 6.122 0 0 1 1.612 1.408c.448.553.767 1.099.957 1.638.196.539.287 1.034.272 1.485-.046 1.463-.74 2.635-2.078 3.518-1.332.883-3.202 1.286-5.608 1.21zm-58.658-28.004 6.787-8.764c.863-1.115 1.68-1.757 2.45-1.926.767-.164 1.555.068 2.365.696.799.619 1.217 1.29 1.252 2.016.039.72-.368 1.633-1.224 2.737l-1.792 2.348 4.22 3.268 1.698-2.193c.876-1.131 1.687-1.781 2.433-1.952.752-.167 1.545.074 2.38.72.8.62 1.218 1.292 1.253 2.018.039.72-.368 1.633-1.223 2.737l-6.687 8.765c-.664.857-1.37 1.317-2.115 1.378-.741.066-1.471-.18-2.192-.738-.826-.64-1.318-1.264-1.476-1.875-.153-.606.127-1.37.84-2.29l2.688-3.47-4.197-3.25-2.541 3.28c-.448.579-.926.975-1.435 1.186-.504.216-.987.275-1.45.178-.463-.107-.93-.342-1.397-.705-.8-.62-1.283-1.238-1.452-1.856-.17-.62.103-1.388.815-2.308zm-23.446-39.151 10.459-3.668c1.28-.45 2.302-.54 3.066-.272.757.27 1.306.892 1.648 1.865.332.948.325 1.74-.023 2.376-.35.63-1.184 1.176-2.502 1.639l-10.432 3.658c-1.977.693-3.291.11-3.942-1.747-.335-.954-.406-1.74-.214-2.357.195-.611.84-1.11 1.94-1.494z"/><svg viewBox="0 0 180 180" height="180" width="180"><svg viewBox="0 0 106.066 106.066" height="106.066" width="106.066"><circle r="53.033" cx="173" cy="173" fill="#f87171" data-fill-palette-color="accent"/><svg x="15.91" y="15.91" viewBox="0 0.499 24 23.002" xml:space="preserve" height="74.246" width="74.246" class="icon-o-0" data-fill-palette-color="quaternary" version="1.1" id="svg7"/></svg></svg><path d="M181.514 194.426a1.547 1.547 0 0 0-1.541-.013l-18.623 10.475a4.656 4.656 0 0 1-3.632.393 4.665 4.665 0 0 1-2.79-2.36l-1.548-3.094a4.653 4.653 0 0 1 1.578-5.936l18.747-12.499c-3.666 1.498-8.854 2.438-14.626 2.438-11.106 0-20.108-3.462-20.108-7.734 0-.529.139-1.045.405-1.547h-1.952a1.547 1.547 0 0 0-1.547 1.547v21.655c0 6.172 9.974 10.828 23.202 10.828 13.228 0 23.202-4.656 23.202-10.828v-1.989a1.547 1.547 0 0 0-.767-1.336zm-22.435-29.16c-13.228 0-23.202 4.655-23.202 10.827s9.974 10.828 23.202 10.828c2.277 0 4.532-.149 6.707-.443a1.544 1.544 0 0 0 .65-.247l7.263-4.842c-3.666 1.498-8.854 2.438-14.623 2.438-11.106 0-20.109-3.462-20.109-7.734s9.003-7.734 20.109-7.734c11.106 0 20.108 3.462 20.108 7.734 0 .764-.3 1.5-.835 2.2l3.066-2.042a1.55 1.55 0 0 0 .63-1.71c-1.524-5.374-11.183-9.275-22.966-9.275zm50.277-27.632a1.54 1.54 0 0 0-1.54-.013l-49.498 27.843a1.547 1.547 0 1 0 1.519 2.694l2.394-1.349h4.594c0 .235.037.467.149.693a1.547 1.547 0 0 0 2.075.69l40.217-20.108a1.547 1.547 0 0 0 .854-1.383v-7.734a1.534 1.534 0 0 0-.764-1.333zm-50.277 33.819c-2.323 0-13.921.223-13.921 4.64 0 4.418 11.598 4.64 13.92 4.64 2.324 0 13.922-.222 13.922-4.64 0-4.417-11.598-4.64-13.921-4.64zm50.227-9.098a1.547 1.547 0 0 0-1.587.077l-51.044 34.03a1.547 1.547 0 0 0-.526 1.98l1.547 3.093a1.538 1.538 0 0 0 1.383.854 1.531 1.531 0 0 0 .758-.198l49.497-27.843a1.547 1.547 0 0 0 .789-1.348v-9.281a1.553 1.553 0 0 0-.817-1.364z" style="fill:#fff;stroke-width:3.09358"/></g></svg>